<?xml version="1.0" standalone="no"?><!DOCTYPE svg PUBLIC "-//W3C//DTD SVG 1.1//EN" "http://www.w3.org/Graphics/SVG/1.1/DTD/svg11.dtd"><svg t="1683567063894" class="icon" viewBox="0 0 1024 1024" version="1.1" xmlns="http://www.w3.org/2000/svg" p-id="7601" xmlns:xlink="http://www.w3.org/1999/xlink" width="200" height="200"><path d="M464.597333 131.370667A42.666667 42.666667 0 0 1 490.666667 170.666667v158.4l17.066666 4.117333A549.333333 549.333333 0 0 1 870.144 621.226667l106.666667 213.013333-67.84 49.770667-70.976-68.672a464 464 0 0 0-308.906667-130.261334L490.666667 683.946667V832a42.666667 42.666667 0 0 1-72.298667 30.72L77.034667 533.333333a42.666667 42.666667 0 0 1-0.106667-61.290666l341.333333-331.946667a42.666667 42.666667 0 0 1 46.336-8.746667zM167.978667 502.506667L405.333333 731.541333V640a42.666667 42.666667 0 0 1 43.925334-42.666667l82.389333 2.432a549.312 549.312 0 0 1 273.6 82.432l-11.392-22.762666a464 464 0 0 0-306.133333-243.328l-49.706667-11.989334A42.666667 42.666667 0 0 1 405.333333 362.666667v-90.986667L167.978667 502.506667z" fill="#000000" p-id="7602"></path></svg>